<?xml version="1.0" encoding="utf-8"?>
<svg version="1.1" xmlns:xlink="http://www.w3.org/1999/xlink" width="50px" height="50px" xmlns="http://www.w3.org/2000/svg">
  <g transform="matrix(1 0 0 1 -1139 -560 )">
    <path d="M 1164 560  C 1178 560  1189 571  1189 585  C 1189 599  1178 610  1164 610  C 1150 610  1139 599  1139 585  C 1139 571  1150 560  1164 560  Z " fill-rule="nonzero" fill="#ffffff" stroke="none" />
    <path d="M 1164 560.5  C 1177.72 560.5  1188.5 571.28  1188.5 585  C 1188.5 598.72  1177.72 609.5  1164 609.5  C 1150.28 609.5  1139.5 598.72  1139.5 585  C 1139.5 571.28  1150.28 560.5  1164 560.5  Z " stroke-width="1" stroke="#797979" fill="none" />
  </g>
</svg>