<?xml version="1.0" encoding="utf-8"?>
<svg version="1.1" xmlns:xlink="http://www.w3.org/1999/xlink" width="60px" height="60px" xmlns="http://www.w3.org/2000/svg">
  <defs>
    <filter x="178px" y="528px" width="60px" height="60px" filterUnits="userSpaceOnUse" id="filter13">
      <feOffset dx="3" dy="3" in="SourceAlpha" result="shadowOffsetInner" />
      <feGaussianBlur stdDeviation="2.5" in="shadowOffsetInner" result="shadowGaussian" />
      <feComposite in2="shadowGaussian" operator="atop" in="SourceAlpha" result="shadowComposite" />
      <feColorMatrix type="matrix" values="0 0 0 0 0  0 0 0 0 0  0 0 0 0 0  0 0 0 0.349019607843137 0  " in="shadowComposite" />
    </filter>
    <g id="widget14">
      <path d="M 205 530  C 219 530  230 541  230 555  C 230 569  219 580  205 580  C 191 580  180 569  180 555  C 180 541  191 530  205 530  Z " fill-rule="nonzero" fill="#ffffff" stroke="none" />
      <path d="M 205 530.5  C 218.72 530.5  229.5 541.28  229.5 555  C 229.5 568.72  218.72 579.5  205 579.5  C 191.28 579.5  180.5 568.72  180.5 555  C 180.5 541.28  191.28 530.5  205 530.5  Z " stroke-width="1" stroke="#797979" fill="none" />
    </g>
  </defs>
  <g transform="matrix(1 0 0 1 -178 -528 )">
    <use xlink:href="#widget14" filter="url(#filter13)" />
    <use xlink:href="#widget14" />
  </g>
</svg>