<?xml version="1.0" encoding="utf-8"?>
<svg version="1.1" xmlns:xlink="http://www.w3.org/1999/xlink" width="25px" height="25px" xmlns="http://www.w3.org/2000/svg">
  <g transform="matrix(1 0 0 1 -723 -590 )">
    <path d="M 24.6907552083333 0.309244791666666  C 24.8969184027778 0.515407986111108  25 0.759548611111108  25 1.04166666666667  L 25 23.9583333333333  C 25 24.2404513888889  24.8969184027778 24.4845920138889  24.6907552083333 24.6907552083333  C 24.4845920138889 24.8969184027778  24.2404513888889 25  23.9583333333333 25  L 15.625 25  C 15.3428819444444 25  15.0987413194444 24.8969184027778  14.892578125 24.6907552083333  C 14.6864149305556 24.4845920138889  14.5833333333333 24.2404513888889  14.5833333333333 23.9583333333333  L 14.5833333333333 1.04166666666667  C 14.5833333333333 0.759548611111108  14.6864149305556 0.515407986111108  14.892578125 0.309244791666666  C 15.0987413194444 0.103081597222221  15.3428819444444 0  15.625 0  L 23.9583333333333 0  C 24.2404513888889 0  24.4845920138889 0.103081597222221  24.6907552083333 0.309244791666666  Z M 10.107421875 0.309244791666666  C 10.3135850694444 0.515407986111108  10.4166666666667 0.759548611111108  10.4166666666667 1.04166666666667  L 10.4166666666667 23.9583333333333  C 10.4166666666667 24.2404513888889  10.3135850694444 24.4845920138889  10.107421875 24.6907552083333  C 9.90125868055556 24.8969184027778  9.65711805555556 25  9.375 25  L 1.04166666666667 25  C 0.759548611111111 25  0.515407986111111 24.8969184027778  0.309244791666667 24.6907552083333  C 0.103081597222222 24.4845920138889  0 24.2404513888889  0 23.9583333333333  L 0 1.04166666666667  C 0 0.759548611111108  0.103081597222222 0.515407986111108  0.309244791666667 0.309244791666666  C 0.515407986111111 0.103081597222221  0.759548611111111 0  1.04166666666667 0  L 9.375 0  C 9.65711805555556 0  9.90125868055556 0.103081597222221  10.107421875 0.309244791666666  Z " fill-rule="nonzero" fill="#7f7f7f" stroke="none" transform="matrix(1 0 0 1 723 590 )" />
  </g>
</svg>