<?xml version="1.0" encoding="utf-8"?>
<svg version="1.1" xmlns:xlink="http://www.w3.org/1999/xlink" width="25px" height="28px" xmlns="http://www.w3.org/2000/svg">
  <g transform="matrix(1 0 0 1 -600 -373 )">
    <path d="M 24.5442708333333 0.471153846153848  C 24.8480902777778 0.785256410256407  25 1.16666666666667  25 1.61538461538462  L 25 20.4615384615385  C 25 21.0224358974359  24.8155381944444 21.5216346153846  24.4466145833333 21.9591346153846  C 24.0776909722222 22.3966346153846  23.6111111111111 22.7359775641026  23.046875 22.9771634615385  C 22.4826388888889 23.2183493589744  21.9211154513889 23.3978365384615  21.3623046875 23.515625  C 20.8034939236111 23.6334134615385  20.2799479166667 23.6923076923077  19.7916666666667 23.6923076923077  C 19.3033854166667 23.6923076923077  18.7798394097222 23.6334134615385  18.2210286458333 23.515625  C 17.6622178819444 23.3978365384615  17.1006944444444 23.2183493589744  16.5364583333333 22.9771634615385  C 15.9722222222222 22.7359775641026  15.5056423611111 22.3966346153846  15.13671875 21.9591346153846  C 14.7677951388889 21.5216346153846  14.5833333333333 21.0224358974359  14.5833333333333 20.4615384615385  C 14.5833333333333 19.900641025641  14.7677951388889 19.4014423076923  15.13671875 18.9639423076923  C 15.5056423611111 18.5264423076923  15.9722222222222 18.1870993589744  16.5364583333333 17.9459134615385  C 17.1006944444444 17.7047275641026  17.6622178819444 17.5252403846154  18.2210286458333 17.4074519230769  C 18.7798394097222 17.2896634615385  19.3033854166667 17.2307692307692  19.7916666666667 17.2307692307692  C 20.9309895833333 17.2307692307692  21.97265625 17.4495192307692  22.9166666666667 17.8870192307692  L 22.9166666666667 8.85096153846154  L 10.4166666666667 12.8389423076923  L 10.4166666666667 24.7692307692308  C 10.4166666666667 25.3301282051282  10.2322048611111 25.8293269230769  9.86328125 26.2668269230769  C 9.49435763888889 26.7043269230769  9.02777777777778 27.0436698717949  8.46354166666667 27.2848557692308  C 7.89930555555556 27.5260416666667  7.33778211805556 27.7055288461538  6.77897135416667 27.8233173076923  C 6.22016059027778 27.9411057692308  5.69661458333333 28  5.20833333333333 28  C 4.72005208333333 28  4.19650607638889 27.9411057692308  3.6376953125 27.8233173076923  C 3.07888454861111 27.7055288461538  2.51736111111111 27.5260416666667  1.953125 27.2848557692308  C 1.38888888888889 27.0436698717949  0.922309027777778 26.7043269230769  0.553385416666667 26.2668269230769  C 0.184461805555556 25.8293269230769  0 25.3301282051282  0 24.7692307692308  C 0 24.2083333333333  0.184461805555556 23.7091346153846  0.553385416666667 23.2716346153846  C 0.922309027777778 22.8341346153846  1.38888888888889 22.4947916666667  1.953125 22.2536057692308  C 2.51736111111111 22.0124198717949  3.07888454861111 21.8329326923077  3.6376953125 21.7151442307692  C 4.19650607638889 21.5973557692308  4.72005208333333 21.5384615384615  5.20833333333333 21.5384615384615  C 6.34765625 21.5384615384615  7.38932291666667 21.7572115384615  8.33333333333333 22.1947115384615  L 8.33333333333333 5.92307692307692  C 8.33333333333333 5.57532051282051  8.43641493055556 5.25841346153846  8.642578125 4.97235576923077  C 8.84874131944445 4.68629807692308  9.11458333333333 4.48717948717948  9.44010416666667 4.375  L 22.9817708333333 0.0673076923076921  C 23.1119791666667 0.0224358974358974  23.2638888888889 0  23.4375 0  C 23.8715277777778 0  24.2404513888889 0.157051282051281  24.5442708333333 0.471153846153848  Z " fill-rule="nonzero" fill="#555555" stroke="none" transform="matrix(1 0 0 1 600 373 )" />
  </g>
</svg>