<?xml version="1.0" encoding="utf-8"?>
<svg version="1.1" xmlns:xlink="http://www.w3.org/1999/xlink" width="20px" height="31px" xmlns="http://www.w3.org/2000/svg">
  <g transform="matrix(1 0 0 1 -702 -370 )">
    <path d="M 20 15.5  C 20 15.8333333333333  19.8777348777349 16.1217948717949  19.6332046332046 16.3653846153846  L 5.30888030888031 30.6346153846154  C 5.06435006435007 30.8782051282051  4.77477477477478 31  4.44015444015444 31  C 4.10553410553411 31  3.81595881595882 30.8782051282051  3.57142857142857 30.6346153846154  L 0.366795366795367 27.4423076923077  C 0.122265122265122 27.1987179487179  0 26.9102564102564  0 26.5769230769231  C 0 26.2435897435897  0.122265122265122 25.9551282051282  0.366795366795367 25.7115384615385  L 10.6177606177606 15.5  L 0.366795366795367 5.28846153846154  C 0.122265122265122 5.04487179487179  0 4.75641025641025  0 4.42307692307692  C 0 4.08974358974359  0.122265122265122 3.80128205128205  0.366795366795367 3.55769230769231  L 3.57142857142857 0.365384615384615  C 3.81595881595882 0.12179487179487  4.10553410553411 0  4.44015444015444 0  C 4.77477477477478 0  5.06435006435007 0.12179487179487  5.30888030888031 0.365384615384615  L 19.6332046332046 14.6346153846154  C 19.8777348777349 14.8782051282051  20 15.1666666666667  20 15.5  Z " fill-rule="nonzero" fill="#555555" stroke="none" transform="matrix(1 0 0 1 702 370 )" />
  </g>
</svg>